<svg width="1214" height="713" xmlns="http://www.w3.org/2000/svg" xmlns:xlink="http://www.w3.org/1999/xlink" overflow="hidden"><defs><clipPath id="clip0"><rect x="231" y="107" width="1214" height="713"/></clipPath></defs><g clip-path="url(#clip0)" transform="translate(-231 -107)"><rect x="1031" y="625" width="387" height="194" stroke="#2F528F" stroke-width="1.66667" stroke-miterlimit="8" stroke-dasharray="6.66667 5" fill="#FFFFE8"/><rect x="255" y="126" width="138" height="101" stroke="#000000" stroke-width="1.66667" stroke-miterlimit="8" fill="none"/><rect x="265" y="136" width="138" height="101" stroke="#000000" stroke-width="1.66667" stroke-miterlimit="8" fill="none"/><rect x="277" y="149" width="138" height="101" stroke="#000000" stroke-width="1.66667" stroke-miterlimit="8" fill="none"/><text font-family="SimSun,SimSun_MSFontService,Arial" font-weight="400" font-size="23" transform="translate(288.895 209)">视频序列</text><rect x="769" y="109" width="199" height="318" stroke="#2F528F" stroke-width="1.66667" stroke-miterlimit="8" stroke-dasharray="6.66667 5" fill="#FFFFE8"/><path d="M793 137.167C793 131 798 126 804.167 126L933.833 126C940 126 945 131 945 137.167L945 181.833C945 188 940 193 933.833 193L804.167 193C798 193 793 188 793 181.833Z" stroke="#2F528F" stroke-width="1.66667" stroke-miterlimit="8" fill="#F2F2FF" fill-rule="evenodd"/><text font-family="Times New Roman,Times New Roman_MSFontService,Arial" font-weight="400" font-size="23" transform="translate(824.772 155)">YOLOv5<tspan font-family="SimSun,SimSun_MSFontService,Arial" font-size="23" x="-2.60834" y="29">目标检测</tspan></text><path d="M793 225.334C793 219.074 798.074 214 804.333 214L933.667 214C939.926 214 945 219.074 945 225.334L945 270.666C945 276.926 939.926 282 933.667 282L804.333 282C798.074 282 793 276.926 793 270.666Z" stroke="#2F528F" stroke-width="1.66667" stroke-miterlimit="8" fill="#F2F2FF" fill-rule="evenodd"/><text font-family="SimSun,SimSun_MSFontService,Arial" font-weight="400" font-size="23" transform="translate(810.497 257)">目标框筛选</text><path d="M793 316.167C793 310 798 305 804.167 305L933.833 305C940 305 945 310 945 316.167L945 360.833C945 367 940 372 933.833 372L804.167 372C798 372 793 367 793 360.833Z" stroke="#2F528F" stroke-width="1.66667" stroke-miterlimit="8" fill="#F2F2FF" fill-rule="evenodd"/><text font-family="SimSun,SimSun_MSFontService,Arial" font-weight="400" font-size="23" transform="translate(808.517 334)">深度<tspan font-family="Times New Roman,Times New Roman_MSFontService,Arial" font-size="23" x="46.6666" y="0">HOG</tspan><tspan font-size="23" x="97.2917" y="0">特</tspan><tspan font-size="23" x="25.3083" y="28">征提取</tspan></text><rect x="1031" y="108" width="387" height="437" stroke="#2F528F" stroke-width="1.66667" stroke-miterlimit="8" stroke-dasharray="6.66667 5" fill="#FFFFE8"/><path d="M1144 136.334C1144 130.074 1149.07 125 1155.33 125L1285.67 125C1291.93 125 1297 130.074 1297 136.334L1297 181.666C1297 187.926 1291.93 193 1285.67 193L1155.33 193C1149.07 193 1144 187.926 1144 181.666Z" stroke="#2F528F" stroke-width="1.66667" stroke-miterlimit="8" fill="#F2F2FF" fill-rule="evenodd"/><text font-family="Times New Roman,Times New Roman_MSFontService,Arial" font-weight="400" font-size="23" transform="translate(1164.96 154)">IOU<tspan font-family="SimSun,SimSun_MSFontService,Arial" font-size="23" x="41.4584" y="0">度量运</tspan><tspan font-family="SimSun,SimSun_MSFontService,Arial" font-size="23" x="9.06665" y="29">动相似度</tspan></text><path d="M765 699.333C765 693.074 770.074 688 776.333 688L952.667 688C958.926 688 964 693.074 964 699.333L964 744.667C964 750.926 958.926 756 952.667 756L776.333 756C770.074 756 765 750.926 765 744.667Z" stroke="#2F528F" stroke-width="1.66667" stroke-miterlimit="8" fill="#F2F2FF" fill-rule="evenodd"/><text font-family="SimSun,SimSun_MSFontService,Arial" font-weight="400" font-size="23" transform="translate(794.465 717)">跟踪目标<tspan font-family="Times New Roman,Times New Roman_MSFontService,Arial" font-size="23" x="93.3334" y="0">track</tspan><tspan font-size="23" x="-11.6667" y="28">卡尔曼滤波预测</tspan></text><path d="M1055 659.333C1055 653.074 1060.07 648 1066.33 648L1387.67 648C1393.93 648 1399 653.074 1399 659.333L1399 704.667C1399 710.926 1393.93 716 1387.67 716L1066.33 716C1060.07 716 1055 710.926 1055 704.667Z" stroke="#2F528F" stroke-width="1.66667" stroke-miterlimit="8" fill="#F2F2FF" fill-rule="evenodd"/><text font-family="SimSun,SimSun_MSFontService,Arial" font-weight="400" font-size="23" transform="translate(1122.16 691)">卡尔曼滤波矩阵更新</text><path d="M1246 213.334C1246 207.074 1251.07 202 1257.33 202L1387.67 202C1393.93 202 1399 207.074 1399 213.334L1399 258.666C1399 264.926 1393.93 270 1387.67 270L1257.33 270C1251.07 270 1246 264.926 1246 258.666Z" stroke="#2F528F" stroke-width="1.66667" stroke-miterlimit="8" fill="#F2F2FF" fill-rule="evenodd"/><text font-family="Times New Roman,Times New Roman_MSFontService,Arial" font-weight="400" font-size="23" transform="translate(1297.08 231)">HOG<tspan font-family="SimSun,SimSun_MSFontService,Arial" font-size="23" x="-21.3501" y="29">特征距离</tspan></text><path d="M1049 213.167C1049 207 1054 202 1060.17 202L1190.83 202C1197 202 1202 207 1202 213.167L1202 257.833C1202 264 1197 269 1190.83 269L1060.17 269C1054 269 1049 264 1049 257.833Z" stroke="#2F528F" stroke-width="1.66667" stroke-miterlimit="8" fill="#F2F2FF" fill-rule="evenodd"/><text font-family="Times New Roman,Times New Roman_MSFontService,Arial" font-weight="400" font-size="23" transform="translate(1099.8 231)">HOG<tspan font-family="SimSun,SimSun_MSFontService,Arial" font-size="23" x="-21.35" y="29">特征距离</tspan></text><path d="M1144 293.167C1144 287 1149 282 1155.17 282L1285.83 282C1292 282 1297 287 1297 293.167L1297 337.833C1297 344 1292 349 1285.83 349L1155.17 349C1149 349 1144 344 1144 337.833Z" stroke="#2F528F" stroke-width="1.66667" stroke-miterlimit="8" fill="#F2F2FF" fill-rule="evenodd"/><text font-family="SimSun,SimSun_MSFontService,Arial" font-weight="400" font-size="23" transform="translate(1174.02 310)">距离融合<tspan font-size="23" x="0" y="29">关联矩阵</tspan></text><path d="M1144 381.334C1144 375.074 1149.07 370 1155.33 370L1285.67 370C1291.93 370 1297 375.074 1297 381.334L1297 426.666C1297 432.926 1291.93 438 1285.67 438L1155.33 438C1149.07 438 1144 432.926 1144 426.666Z" stroke="#2F528F" stroke-width="1.66667" stroke-miterlimit="8" fill="#F2F2FF" fill-rule="evenodd"/><text font-family="SimSun,SimSun_MSFontService,Arial" font-weight="400" font-size="23" transform="translate(1162.35 414)">匈牙利匹配</text><path d="M1148 469.334C1148 463.074 1153.07 458 1159.33 458L1288.67 458C1294.93 458 1300 463.074 1300 469.334L1300 514.667C1300 520.926 1294.93 526 1288.67 526L1159.33 526C1153.07 526 1148 520.926 1148 514.667Z" stroke="#2F528F" stroke-width="1.66667" stroke-miterlimit="8" fill="#F2F2FF" fill-rule="evenodd"/><text font-family="SimSun,SimSun_MSFontService,Arial" font-weight="400" font-size="23" transform="translate(1183.15 502)">IOU<tspan font-size="23" x="35" y="0">匹配</tspan></text><path d="M1054 748.334C1054 742.074 1059.07 737 1065.33 737L1387.67 737C1393.93 737 1399 742.074 1399 748.334L1399 793.666C1399 799.926 1393.93 805 1387.67 805L1065.33 805C1059.07 805 1054 799.926 1054 793.666Z" stroke="#2F528F" stroke-width="1.66667" stroke-miterlimit="8" fill="#F2F2FF" fill-rule="evenodd"/><text font-family="SimSun,SimSun_MSFontService,Arial" font-weight="400" font-size="23" transform="translate(1069.56 767)">创建<tspan font-size="23" x="48.4833" y="0">、</tspan><tspan font-size="23" x="72.725" y="0">删除</tspan><tspan font-size="23" x="121.2" y="0">、</tspan><tspan font-size="23" x="145.433" y="0">更新</tspan><tspan font-size="23" x="193.9" y="0">、</tspan><tspan font-size="23" x="218.133" y="0">重识别跟</tspan><tspan font-size="23" x="0" y="27">踪目标</tspan><tspan font-family="Times New Roman,Times New Roman_MSFontService,Arial" font-size="23" x="70" y="27">track</tspan><tspan font-size="23" x="-251.76" y="-360">目标检测</tspan><tspan font-size="23" x="240.77" y="-240">跟踪匹配</tspan><tspan font-size="23" x="182.788" y="-151">Tracker</tspan><tspan font-size="23" x="264.455" y="-151">更新</tspan></text><path d="M968 176.125 1021.2 176.125 1021.2 179.875 968 179.875ZM1019.32 172.375 1030.57 178 1019.32 183.625Z"/><rect x="1045" y="115" width="360" height="334" stroke="#2F528F" stroke-width="1.66667" stroke-miterlimit="8" stroke-dasharray="1.66667 1.66667" fill="none"/><path d="M1.87479-0.0279687 4.58127 181.393 0.831692 181.449-1.87479 0.0279687ZM8.30289 179.462 2.84633 190.794-2.94586 179.63Z" transform="matrix(-1 0 0 1 333.846 237)"/><path d="M3.69186e-06-1.875 57.2751-1.87489 57.2751 1.87511-3.69186e-06 1.875ZM55.4001-5.62489 66.6501 0.000131234 55.4001 5.62511Z" transform="matrix(-1 0 0 1 1030.65 722)"/><path d="M1.87455-0.0412575 2.14136 12.0813-1.60774 12.1638-1.87455 0.0412575ZM5.84919 10.1242 0.473097 21.4953-5.39809 10.3718Z" transform="matrix(-1 0 0 1 1227.47 716)"/><path d="M870.875 195 870.875 205.06 867.125 205.06 867.125 195ZM874.625 203.185 869 214.435 863.375 203.185Z"/><path d="M870.875 282 870.875 292.06 867.125 292.06 867.125 282ZM874.625 290.185 869 301.435 863.375 290.185Z"/><path d="M0-1.875 47.7686-1.875 47.7686 9.76778 44.0186 9.76778 44.0186 0 45.8936 1.875 0 1.875ZM51.5186 7.89278 45.8936 19.1428 40.2686 7.89278Z" transform="matrix(1.83697e-16 1 1 -1.83697e-16 1125 269)"/><path d="M1324.16 270 1324.16 317.197 1306.38 317.197 1306.38 313.447 1322.29 313.447 1320.41 315.322 1320.41 270ZM1308.25 320.947 1297 315.322 1308.25 309.697Z"/><path d="M1222.88 193 1222.88 271.91 1219.13 271.91 1219.12 193ZM1226.63 270.035 1221 281.285 1215.38 270.035Z"/><path d="M1222.88 346 1222.88 359.993 1219.13 359.994 1219.12 346ZM1226.63 358.118 1221 369.368 1215.38 358.119Z"/><path d="M1226.88 434 1226.88 447.993 1223.13 447.994 1223.12 434ZM1230.63 446.118 1225 457.368 1219.38 446.119Z"/><text font-family="SimSun,SimSun_MSFontService,Arial" font-weight="400" font-size="23" transform="translate(1304.45 439)">级联匹配</text><rect x="232" y="428" width="198" height="391" stroke="#2F528F" stroke-width="1.66667" stroke-miterlimit="8" stroke-dasharray="6.66667 5" fill="#FFFFE8"/><path d="M255 481.167C255 475 260 470 266.167 470L396.833 470C403 470 408 475 408 481.167L408 525.833C408 532 403 537 396.833 537L266.167 537C260 537 255 532 255 525.833Z" stroke="#2F528F" stroke-width="1.66667" stroke-miterlimit="8" fill="#F2F2FF" fill-rule="evenodd"/><text font-family="Times New Roman,Times New Roman_MSFontService,Arial" font-weight="400" font-size="23" transform="translate(281.57 512)">Sobel<tspan font-family="SimSun,SimSun_MSFontService,Arial" font-size="23" x="53.125" y="0">算子</tspan></text><path d="M255 569.167C255 563 260 558 266.167 558L396.833 558C403 558 408 563 408 569.167L408 613.833C408 620 403 625 396.833 625L266.167 625C260 625 255 620 255 613.833Z" stroke="#2F528F" stroke-width="1.66667" stroke-miterlimit="8" fill="#F2F2FF" fill-rule="evenodd"/><text font-family="SimSun,SimSun_MSFontService,Arial" font-weight="400" font-size="23" transform="translate(284.799 601)">阈值过滤</text><path d="M255 660.167C255 654 260 649 266.167 649L396.833 649C403 649 408 654 408 660.167L408 704.833C408 711 403 716 396.833 716L266.167 716C260 716 255 711 255 704.833Z" stroke="#2F528F" stroke-width="1.66667" stroke-miterlimit="8" fill="#F2F2FF" fill-rule="evenodd"/><text font-family="SimSun,SimSun_MSFontService,Arial" font-weight="400" font-size="23" transform="translate(284.799 691)">检测边界<tspan font-size="23" x="-0.651794" y="-233">轨道提取</tspan></text><path d="M332.875 539 332.875 549.06 329.125 549.06 329.125 539ZM336.625 547.185 331 558.435 325.375 547.185Z"/><path d="M332.875 625 332.875 639.196 329.125 639.196 329.125 625ZM336.625 637.321 331 648.571 325.375 637.321Z"/><path d="M255 747.167C255 741 260 736 266.167 736L395.833 736C402 736 407 741 407 747.167L407 791.833C407 798 402 803 395.833 803L266.167 803C260 803 255 798 255 791.833Z" stroke="#2F528F" stroke-width="1.66667" stroke-miterlimit="8" fill="#F2F2FF" fill-rule="evenodd"/><text font-family="SimSun,SimSun_MSFontService,Arial" font-weight="400" font-size="23" transform="translate(272.847 778)">多项式拟合</text><path d="M1.8748-0.0270822 2.02522 10.3856-1.72439 10.4398-1.8748 0.0270822ZM5.74775 8.45667 0.285827 19.7867-5.50108 8.61917Z" transform="matrix(-1 0 0 1 331.286 716)"/><path d="M1225.88 545 1225.88 615.734 1222.13 615.734 1222.12 545ZM1229.63 613.859 1224 625.109 1218.38 613.859Z"/><path d="M862.125 687.612 862.125 497.146 1017.75 497.142 1017.75 500.892 864 500.896 865.875 499.021 865.875 687.612ZM1015.87 493.396 1027.13 499 1015.89 504.646Z"/><path d="M520 270.334C520 264.074 525.074 259 531.334 259L661.666 259C667.926 259 673 264.074 673 270.334L673 315.666C673 321.926 667.926 327 661.666 327L531.334 327C525.074 327 520 321.926 520 315.666Z" stroke="#2F528F" stroke-width="1.66667" stroke-miterlimit="8" fill="#F2F2FF" fill-rule="evenodd"/><text font-family="SimSun,SimSun_MSFontService,Arial" font-weight="400" font-size="23" transform="translate(550.013 303)">模型剪枝</text><path d="M673 291.125 756.598 291.125 756.598 294.875 673 294.875ZM754.723 287.375 765.973 293 754.723 298.625Z"/><rect x="498" y="427" width="199" height="392" stroke="#2F528F" stroke-width="1.66667" stroke-miterlimit="8" stroke-dasharray="6.66667 5" fill="#FFFFE8"/><path d="M521 484.167C521 478 526 473 532.167 473L661.833 473C668 473 673 478 673 484.167L673 528.833C673 535 668 540 661.833 540L532.167 540C526 540 521 535 521 528.833Z" stroke="#2F528F" stroke-width="1.66667" stroke-miterlimit="8" fill="#F2F2FF" fill-rule="evenodd"/><text font-family="SimSun,SimSun_MSFontService,Arial" font-weight="400" font-size="23" transform="translate(561.966 516)">检测框</text><path d="M519 572.167C519 566 524 561 530.167 561L660.833 561C667 561 672 566 672 572.167L672 616.833C672 623 667 628 660.833 628L530.167 628C524 628 519 623 519 616.833Z" stroke="#2F528F" stroke-width="1.66667" stroke-miterlimit="8" fill="#F2F2FF" fill-rule="evenodd"/><text font-family="SimSun,SimSun_MSFontService,Arial" font-weight="400" font-size="23" transform="translate(537.072 591)">计算中心点<tspan font-size="23" x="11.6667" y="27">位置坐标</tspan></text><path d="M521 663.167C521 657 526 652 532.167 652L661.833 652C668 652 673 657 673 663.167L673 707.833C673 714 668 719 661.833 719L532.167 719C526 719 521 714 521 707.833Z" stroke="#2F528F" stroke-width="1.66667" stroke-miterlimit="8" fill="#F2F2FF" fill-rule="evenodd"/><text font-family="SimSun,SimSun_MSFontService,Arial" font-weight="400" font-size="23" transform="translate(538.633 681)">中心点是否<tspan font-size="23" x="0" y="27">在多边形内</tspan><tspan font-size="23" x="9.59552" y="-221">侵限判断</tspan></text><path d="M596.875 542 596.875 552.06 593.125 552.06 593.125 542ZM600.625 550.185 595 561.435 589.375 550.185Z"/><path d="M598.875 628 598.875 642.196 595.125 642.196 595.125 628ZM602.625 640.321 597 651.571 591.375 640.321Z"/><path d="M520 750.167C520 744 525 739 531.167 739L661.833 739C668 739 673 744 673 750.167L673 794.833C673 801 668 806 661.833 806L531.167 806C525 806 520 801 520 794.833Z" stroke="#2F528F" stroke-width="1.66667" stroke-miterlimit="8" fill="#F2F2FF" fill-rule="evenodd"/><text font-family="SimSun,SimSun_MSFontService,Arial" font-weight="400" font-size="23" transform="translate(550.013 781)">入侵警告</text><path d="M1.8748-0.0270822 2.02522 10.3856-1.72439 10.4398-1.8748 0.0270822ZM5.74775 8.45667 0.285827 19.7867-5.50108 8.61917Z" transform="matrix(-1 0 0 1 597.286 719)"/><path d="M415.015 196.125 761.822 198.844 761.793 202.594 414.985 199.875ZM759.976 195.079 771.182 200.792 759.888 206.329Z"/><path d="M0.00484026-1.87499 58.5475-1.72387 58.5378 2.02612-0.00484026 1.87499ZM56.6821-5.47869 67.9176 0.175328 56.6531 5.77127Z" transform="matrix(1 0 0 -1 430 623.175)"/><path d="M0-1.875 259.675-1.875 259.675 177.39 257.8 175.515 317.654 175.515 317.654 179.265 255.925 179.265 255.925 0 257.8 1.875 0 1.875ZM315.779 171.765 327.029 177.39 315.779 183.015Z" transform="matrix(-1 1.22465e-16 1.22465e-16 1 1024.03 446)"/></g></svg>